<?xml version="1.0" encoding="UTF-8" standalone="no"?>
<svg
   version="1"
   viewBox="0 0 2.5 2.5"
   width="20"
   height="20"
   id="svg2"
   sodipodi:docname="atec_wpca_icon_admin.svg"
   inkscape:version="1.4 (e7c3feb1, 2024-10-09)"
   xmlns:inkscape="http://www.inkscape.org/namespaces/inkscape"
   xmlns:sodipodi="http://sodipodi.sourceforge.net/DTD/sodipodi-0.dtd"
   xmlns="http://www.w3.org/2000/svg"
   xmlns:svg="http://www.w3.org/2000/svg">
  <defs
     id="defs2" />
  <sodipodi:namedview
     id="namedview2"
     pagecolor="#ffffff"
     bordercolor="#000000"
     borderopacity="0.25"
     inkscape:showpageshadow="2"
     inkscape:pageopacity="0.0"
     inkscape:pagecheckerboard="true"
     inkscape:deskcolor="#d1d1d1"
     inkscape:zoom="16"
     inkscape:cx="10.84375"
     inkscape:cy="10"
     inkscape:window-width="2048"
     inkscape:window-height="1099"
     inkscape:window-x="0"
     inkscape:window-y="25"
     inkscape:window-maximized="0"
     inkscape:current-layer="svg2" />
  <path
     d="m 2.41,1.4206133 v -0.087514 a 0.09,0.08950311 0 1 0 -0.178,0 v 0.089503 h -0.09 v -0.089503 a 0.09,0.08950311 0 1 0 -0.178,0 v 0.089503 H 1.875 v -0.089503 a 0.09,0.08950311 0 1 0 -0.179,0 v 0.089503 H 1.607 v -0.089503 a 0.09,0.08950311 0 1 0 -0.178,0 v 0.089503 h -0.09 v -0.089503 a 0.09,0.08950311 0 1 0 -0.178,0 v 0.089503 h -0.09 v -0.089503 a 0.09,0.08950311 0 1 0 -0.178,0 v 0.089503 h -0.09 v -0.089503 a 0.09,0.08950311 0 1 0 -0.178,0 v 0.089503 h -0.09 v -0.089503 a 0.09,0.08950311 0 1 0 -0.178,0 v 0.089503 h -0.09 v -0.089503 a 0.09,0.08950311 0 1 0 -0.178,0 v 0.089503 A 0.09,0.08950311 0 0 0 0,1.5091219 v 0.710058 a 0.09,0.08950311 0 0 0 0.09,0.089503 v 0.087514 a 0.09,0.08950311 0 1 0 0.178,0 v -0.088509 h 0.09 v 0.089503 a 0.09,0.08950311 0 1 0 0.178,0 v -0.089503 h 0.089 v 0.089503 a 0.09,0.08950311 0 1 0 0.179,0 v -0.089503 h 0.089 v 0.089503 a 0.09,0.08950311 0 1 0 0.178,0 v -0.089503 h 0.09 v 0.089503 a 0.09,0.08950311 0 1 0 0.178,0 v -0.089503 h 0.09 v 0.089503 a 0.09,0.08950311 0 1 0 0.178,0 v -0.089503 h 0.09 v 0.089503 a 0.09,0.08950311 0 1 0 0.178,0 v -0.089503 h 0.09 v 0.089503 a 0.09,0.08950311 0 1 0 0.178,0 v -0.089503 h 0.09 v 0.089503 a 0.09,0.08950311 0 1 0 0.178,0 V 2.3076886 A 0.09,0.08950311 0 0 0 2.5,2.2181854 V 1.5091219 A 0.09,0.08950311 0 0 0 2.41,1.4196188 Z M 0.18,2.1316658 V 1.598625 H 2.32 V 2.1316658 Z M 0.714,0.35552625 V 1.1550874 a 0.09,0.08950311 0 1 0 0.179,0 V 0.44403488 H 1.392 L 1.607,0.65884235 V 1.1550874 a 0.09,0.08950311 0 1 0 0.179,0 V 0.62204662 A 0.09,0.08950311 0 0 0 1.76,0.55939445 L 1.492,0.29287407 A 0.09,0.08950311 0 0 0 1.429,0.26701762 H 0.804 a 0.09,0.08950311 0 0 0 -0.09,0.0895031 z"
     fill="#ffffff"
     class="color000 svgShape"
     id="path1"
     style="stroke-width:0.997236" />
  <path
     d="M 0.536,1.0655843 A 0.09,0.08950311 0 0 0 0.625,0.97707563 V 0.17850898 H 1.25 a 0.09,0.08950311 0 1 0 0,-0.17801174049 H 0.536 A 0.09,0.08950311 0 0 0 0.446,0.09000035 v 0.88707528 a 0.09,0.08950311 0 0 0 0.09,0.0895031 z M 1.429,0.71055526 H 1.07 a 0.09,0.08950311 0 1 0 0,0.17801174 h 0.358 a 0.09,0.08950311 0 1 0 0,-0.17801174 z m 0,0.26652037 H 1.07 a 0.09,0.08950311 0 1 0 0,0.17801177 h 0.358 a 0.09,0.08950311 0 1 0 0,-0.17801177 z"
     fill="#ffffff"
     class="color000 svgShape"
     id="path2"
     style="stroke-width:0.997236" />
</svg>
